<svg id="Capa_1" data-name="Capa 1" xmlns="http://www.w3.org/2000/svg" viewBox="0 0 90.71 90.71"><defs><style>.cls-1{fill:#e40c0b;}</style></defs><title>file_pdf</title><path class="cls-1" d="M74.59,52.22c-1.21-1.19-3.89-1.82-8-1.88A66,66,0,0,0,57,51,24.35,24.35,0,0,1,52.59,48a32.48,32.48,0,0,1-8-12.45c.12-.45.21-.85.31-1.26,0,0,1.92-10.9,1.41-14.59a4.26,4.26,0,0,0-.25-1l-.17-.43a3.45,3.45,0,0,0-3.15-2.41l-1,0A3.56,3.56,0,0,0,38.12,18c-1.16,4.29,0,10.71,2.21,19l-.56,1.35c-1.56,3.8-3.51,7.62-5.23,11l-.22.44c-1.81,3.55-3.46,6.56-4.95,9.11l-1.54.81c-.11.06-2.75,1.45-3.37,1.83-5.25,3.13-8.73,6.69-9.3,9.52A2.34,2.34,0,0,0,16,73.71l1.49.75a4.49,4.49,0,0,0,2,.49c3.74,0,8.08-4.66,14.06-15.09a140.09,140.09,0,0,1,21.65-5.15c5.25,3,11.71,5,15.78,5a7.35,7.35,0,0,0,1.85-.2,3.15,3.15,0,0,0,1.84-1.26,6.68,6.68,0,0,0,.74-4.51,3,3,0,0,0-.89-1.53ZM18.75,72.11c.68-1.86,3.38-5.55,7.37-8.82.25-.2.87-.78,1.43-1.32C23.38,68.63,20.59,71.28,18.75,72.11ZM42.38,17.69c1.2,0,1.89,3,1.94,5.87a12,12,0,0,1-1.43,6.31,30.8,30.8,0,0,1-1-7.88s-.05-4.3.5-4.3Zm-7,38.78c.84-1.5,1.71-3.08,2.6-4.75a90.53,90.53,0,0,0,4.56-10A32.88,32.88,0,0,0,50,51.11q.56.47,1.18.94a96.18,96.18,0,0,0-15.86,4.42Zm38.1-.34a5.42,5.42,0,0,1-2.1.36c-2.19,0-4.9-1-8.69-2.63,1.46-.11,2.8-.16,4-.16a15.39,15.39,0,0,1,5,.54c2.15.55,2.17,1.66,1.81,1.89ZM80,17.67,67.37,5a19.72,19.72,0,0,0-12.1-5H12.76A7.11,7.11,0,0,0,5.67,7.09V83.62a7.11,7.11,0,0,0,7.09,7.09H78A7.11,7.11,0,0,0,85,83.62V29.76A19.72,19.72,0,0,0,80,17.67Zm-4,4a7.48,7.48,0,0,1,.82,1H62.36V8.2a7.48,7.48,0,0,1,1,.82L76,21.67Zm3.35,61.95A1.44,1.44,0,0,1,78,85H12.76a1.44,1.44,0,0,1-1.42-1.42V7.09a1.44,1.44,0,0,1,1.42-1.42H55.28a7.71,7.71,0,0,1,1.42.15V28.35H79.22a7.71,7.71,0,0,1,.15,1.42Z"/></svg>