<?xml version="1.0" encoding="utf-8"?>
<!-- Generator: Adobe Illustrator 16.0.0, SVG Export Plug-In . SVG Version: 6.00 Build 0)  -->
<!DOCTYPE svg PUBLIC "-//W3C//DTD SVG 1.1//EN" "http://www.w3.org/Graphics/SVG/1.1/DTD/svg11.dtd">
<svg version="1.1" id="レイヤー_1" xmlns="http://www.w3.org/2000/svg" xmlns:xlink="http://www.w3.org/1999/xlink" x="0px"
	 y="0px" width="141.732px" height="21.7px" viewBox="0 0 141.732 21.7" enable-background="new 0 0 141.732 21.7"
	 xml:space="preserve">
<g>
	<g>
		<path d="M6.067,10.771l1.398,1.226v-0.025c0.354-0.371,0.984-1.539,0.984-1.539h1.714v1.464H6.516v1.71l3.192-0.012
			c-1.187,1.991-2.924,4.077-4.354,4.914l1.207,1.482c1.432-1.006,2.722-2.711,3.602-4.118v5.061h2.006v-4.868
			c0.528,0.931,2.115,2.891,3.139,3.699l1.207-1.558c-0.733-0.437-2.552-2.051-4-4.617h3.693v-1.693h-4.049v-1.464h3.748V8.836
			h-3.748V6.681h-1.995v2.155H9.062C9.239,8.219,9.322,7.67,9.25,7.372l0.013-0.038l-1.748-0.39
			c0.147,1.147-0.903,3.202-1.448,3.712V9.49H4.566v-2.81H2.571v2.81H0.367v1.587h2.184C2.277,13.052,0.024,15.691,0,15.593
			l1.03,1.96c0.484-0.415,1.254-1.912,1.532-2.561l0.005,5.934h2.007v-7.043c-0.025,0.101,0.855,1.458,1.282,1.685l1.056-1.635
			c-0.73-0.242-1.803-1.586-2.346-2.855l1.501,0.008V10.771z"/>
		<path d="M23.018,14.21h2.649V12.5h-7.696v1.71h3.052v3.639c-1.355,0.152-2.704,0.273-3.627,0.283l0.251,1.909
			c2.916,0,8.446-1.307,8.446-1.307v-1.559c0,0-1.359,0.2-3.075,0.424V14.21z"/>
		<path d="M56.81,16.472l1.308-1.207l-2.498-2.36c0.847-1.013,1.474-1.89,1.652-2.314V8.88h-2.179V6.55h-1.995v2.33h-2.382v1.71
			h4.373c-1.199,1.845-3.645,4.292-4.916,4.928l1.005,1.708c0.614-0.438,1.271-1.003,1.919-1.621v5.041h1.995v-5.791L56.81,16.472z"
			/>
		<polygon points="57.747,10.043 57.747,11.64 60.647,11.64 60.647,18.332 56.732,18.332 56.732,20.041 66.138,20.041 
			66.138,18.332 62.642,18.332 62.642,11.64 65.728,11.64 65.728,10.043 62.642,10.043 62.642,6.568 60.647,6.568 60.647,10.043 		
			"/>
		<path d="M46.145,19.201c0.392,0.464,0.709,0.919,0.912,1.343l1.76-1.156c-1.157-1.407-3.418-3.468-4.173-3.922l-1.609,0.855
			c0.555,0.425,1.728,1.461,1.728,1.461c-1.711,0.308-3.633,0.459-5.574,0.523l1.95-3.392h7.657v-1.71H34.259v1.71h4.718
			l-1.957,3.432c-0.807,0.004-1.605-0.002-2.38-0.014l0.251,1.76C38.028,20.232,45.18,19.326,46.145,19.201z M37.017,12.143h9.121
			v-1.281c0,0,1.896,0.753,2.478,0.885l0.955-1.71c-2.563-0.501-5.63-2.01-6.837-3.418h-2.312c-1.71,1.81-5.279,3.469-6.788,3.669
			l0.956,1.66c0.763-0.198,1.604-0.54,2.428-0.933V12.143z M37.941,10.545c0,0,3.247-2.008,3.585-2.47
			c0.873,0.874,2.429,1.771,3.917,2.47H37.941z"/>
		<path d="M28.193,8.88l0.01-0.012v-2.2h-2.011l-0.015,2.181V8.88h-8.661v1.71h8.68c0.134,3.245,0.841,5.927,1.454,7.591
			c0.855,2.515,3.469,4.224,5.48-0.2l-1.358-1.936c-0.452,1.785-1.658,4.499-2.664,0.024c-0.648-2.884-0.792-4.42-0.84-5.479h3.784
			l-0.004-1.146l0.88-0.362c0,0-1.157-1.96-1.558-2.312l-1.811,0.855c0,0,0.563,0.644,1.041,1.256H28.193z"/>
	</g>
	<g>
		<g>
			<rect x="73.366" y="1.658" width="18.597" height="4.814"/>
			<rect x="72.567" y="16.094" width="20.295" height="4.813"/>
		</g>
		<polygon points="116.355,1.667 97.176,1.667 97.176,6.512 111.462,6.512 111.462,16.053 97.176,16.053 97.176,20.948 
			116.355,20.948 		"/>
		<path d="M130.543,8.519V3.469L121.953,0v5.049L130.543,8.519z M141.732,13.694V8.397L121.863,16.4v5.3L141.732,13.694z"/>
	</g>
</g>
</svg>
